HIERARCHY
ROOT Hips
{
 OFFSET 0.000000 0.000000 0.000000
 CHANNELS 6 Xposition Yposition Zposition Yrotation Xrotation Zrotation
 JOINT Chest
 {
  OFFSET 0.000000 9.303000 0.001900
  CHANNELS 3 Yrotation Xrotation Zrotation
  JOINT Chest2
  {
   OFFSET 0.000000 9.301100 -0.003900
   CHANNELS 3 Yrotation Xrotation Zrotation
   JOINT Chest3
   {
    OFFSET 0.000000 9.262800 0.000000
    CHANNELS 3 Yrotation Xrotation Zrotation
    JOINT Chest4
    {
     OFFSET 0.000000 9.253300 0.000000
     CHANNELS 3 Yrotation Xrotation Zrotation
     JOINT Neck
     {
      OFFSET 0.000000 14.010300 0.000000
      CHANNELS 3 Yrotation Xrotation Zrotation
      JOINT Head
      {
       OFFSET 0.000000 8.657600 -0.008300
       CHANNELS 3 Yrotation Xrotation Zrotation
       End Site
       {
        OFFSET 0.000000 16.540200 -0.004400
       }
      }
     }
     JOINT RightCollar
     {
      OFFSET -2.834100 9.267700 0.000000
      CHANNELS 3 Yrotation Xrotation Zrotation
      JOINT RightShoulder
      {
       OFFSET -13.135200 0.000000 0.000000
       CHANNELS 3 Yrotation Xrotation Zrotation
       JOINT RightElbow
       {
        OFFSET 0.000000 -28.893500 0.000000
        CHANNELS 3 Yrotation Xrotation Zrotation
        JOINT RightWrist
        {
         OFFSET 0.000000 -23.344000 0.000000
         CHANNELS 3 Yrotation Xrotation Zrotation
         End Site
         {
          OFFSET 0.000000 -17.223000 0.000000
         }
        }
       }
      }
     }
     JOINT LeftCollar
     {
      OFFSET 2.834100 9.267700 0.000000
      CHANNELS 3 Yrotation Xrotation Zrotation
      JOINT LeftShoulder
      {
       OFFSET 13.135200 0.000000 0.000000
       CHANNELS 3 Yrotation Xrotation Zrotation
       JOINT LeftElbow
       {
        OFFSET 0.000000 -28.893500 0.000000
        CHANNELS 3 Yrotation Xrotation Zrotation
        JOINT LeftWrist
        {
         OFFSET 0.000000 -23.344000 0.000000
         CHANNELS 3 Yrotation Xrotation Zrotation
         End Site
         {
          OFFSET 0.000000 -17.223000 0.000000
         }
        }
       }
      }
     }
    }
   }
  }
 }
 JOINT RightHip
 {
  OFFSET -7.547200 -0.009500 -0.001000
  CHANNELS 3 Yrotation Xrotation Zrotation
  JOINT RightKnee
  {
   OFFSET 0.000000 -39.762800 0.000900
   CHANNELS 3 Yrotation Xrotation Zrotation
   JOINT RightAnkle
   {
    OFFSET 0.000000 -38.588200 0.001600
    CHANNELS 3 Yrotation Xrotation Zrotation
    JOINT RightToe
    {
     OFFSET 0.000000 -4.693300 10.419700
     CHANNELS 3 Yrotation Xrotation Zrotation
     End Site
     {
      OFFSET 0.000000 -1.379900 5.669300
     }
    }
   }
  }
 }
 JOINT LeftHip
 {
  OFFSET 7.547200 -0.009500 -0.001000
  CHANNELS 3 Yrotation Xrotation Zrotation
  JOINT LeftKnee
  {
   OFFSET 0.000000 -39.762800 0.000900
   CHANNELS 3 Yrotation Xrotation Zrotation
   JOINT LeftAnkle
   {
    OFFSET 0.000000 -38.588200 0.001600
    CHANNELS 3 Yrotation Xrotation Zrotation
    JOINT LeftToe
    {
     OFFSET 0.000000 -4.693300 10.419700
     CHANNELS 3 Yrotation Xrotation Zrotation
     End Site
     {
      OFFSET 0.000000 -1.379900 5.669300
     }
    }
   }
  }
 }
}
MOTION
Frames: 9
Frame Time: 0.008333
0.000000 82.880600 0.000000 0.000000 -5.767877 0.000000 0.000000 11.653817 0.000000 0.000000 -5.885947 0.000000 0.000000 -0.000000 0.000000 0.000000 -0.000000 0.000000 0.000000 12.528835 0.000000 0.000000 0.711642 0.000000 0.000000 -0.000000 0.000000 0.000000 0.000000 -90.000000 0.000000 -2.309062 0.000000 0.000000 2.309062 0.000000 0.000000 -0.000000 0.000000 0.000000 -0.000000 90.000000 0.000000 -2.309062 0.000000 0.000000 2.309062 0.000000 0.000000 8.520406 0.000000 0.000000 1.905762 0.000000 -0.000000 -4.658285 0.000000 0.000000 -0.000000 0.000000 0.000000 8.520406 0.000000 0.000000 1.905762 0.000000 -0.000000 -4.658285 0.000000 0.000000 -0.000000 0.000000
-9.838798 45.844620 26.483285 160.524381 -15.080630 0.417026 4.491109 8.966305 0.268849 0.268066 0.539954 0.013961 0.463562 0.933276 0.025784 4.166099 8.351810 0.504160 -1.240487 23.154699 0.022945 -1.349444 -0.850353 0.314515 2.208450 0.865552 -3.908807 1.136653 -11.947244 0.596185 -6.924096 -78.219215 15.333603 -10.212955 -8.706554 -26.379878 -10.857523 -0.381622 -3.665171 15.116134 -14.499749 9.984813 44.264267 -62.133079 -58.211689 10.566317 -9.090882 19.317145 -16.792520 -73.122370 14.666530 -59.848894 85.469293 -62.418579 -6.394680 -4.327074 -0.947571 0.069069 -0.240565 0.038548 7.697710 -72.768314 11.784939 75.742783 77.556397 73.288317 -11.525212 -5.171881 4.359380 0.064196 0.354125 0.037284
-9.838740 45.846649 26.481980 160.520626 -15.073817 0.419830 4.491325 8.981992 0.268907 0.267568 0.540664 0.014005 0.460230 0.949949 0.026917 4.157176 8.353599 0.499775 -1.230827 23.119471 0.020474 -1.341592 -0.907551 0.308534 2.223600 0.820698 -3.920216 1.129171 -11.928819 0.595185 -6.428794 -78.198973 14.818618 -10.191128 -8.470415 -26.166431 -10.839910 -0.431924 -3.660294 15.106260 -14.489476 9.985697 43.950879 -62.317528 -57.811589 10.441923 -9.014865 19.179265 -16.792184 -73.128654 14.664626 -59.838557 85.470907 -62.406966 -6.382212 -4.324845 -0.947395 0.095890 -0.244839 0.037916 7.684798 -72.774484 11.790800 75.779601 77.548756 73.325737 -11.526260 -5.171032 4.355362 0.059235 0.348560 0.032469
-9.840197 45.848885 26.481857 160.527706 -15.052303 0.425669 4.470853 9.020132 0.263641 0.275655 0.510546 0.010119 0.462002 0.936535 0.025480 4.151194 8.360835 0.498639 -1.232319 23.092026 0.019263 -1.329084 -0.983244 0.299382 2.228787 0.790073 -3.927819 1.112455 -11.914258 0.598334 -5.832084 -78.161800 14.213451 -10.158089 -8.203498 -25.909844 -10.828118 -0.467891 -3.650606 15.072390 -14.470850 9.979899 43.535107 -62.600517 -57.253980 10.257059 -8.893653 18.973593 -16.794484 -73.150035 14.659839 -59.837720 85.472930 -62.405468 -6.393771 -4.328865 -0.944578 0.111747 -0.243234 0.035893 7.693838 -72.792914 11.764567 75.791559 77.541901 73.334742 -11.523922 -5.167995 4.359419 0.061892 0.344965 0.025844
-9.841231 45.852153 26.480406 160.540984 -15.035094 0.429380 4.447043 9.035814 0.257409 0.265913 0.544060 0.013533 0.472460 0.905255 0.020476 4.129883 8.384139 0.497731 -1.209658 23.029299 0.010321 -1.323228 -1.090884 0.291799 2.248190 0.717825 -3.949887 1.094067 -11.892194 0.610520 -5.130794 -78.120585 13.507446 -10.106295 -7.902708 -25.608192 -10.784572 -0.578465 -3.618571 15.044466 -14.404758 9.957948 42.962822 -62.994137 -56.522326 10.013195 -8.721353 18.689294 -16.808987 -73.163969 14.656599 -59.892536 85.468005 -62.454787 -6.405953 -4.341617 -0.949158 0.116307 -0.239179 0.034902 7.707040 -72.806643 11.727975 75.784093 77.533896 73.328918 -11.520598 -5.162944 4.358625 0.058338 0.340699 0.023030
-9.841029 45.856167 26.478901 160.548769 -15.016140 0.426449 4.429666 9.049725 0.258106 0.270181 0.527961 0.012522 0.465504 0.923951 0.023362 4.107106 8.402129 0.493635 -1.202692 22.912086 -0.000077 -1.301657 -1.175101 0.275711 2.268170 0.641567 -3.970948 1.092953 -11.864684 0.622008 -4.283220 -78.072967 12.636585 -10.031440 -7.575905 -25.255737 -10.744527 -0.663508 -3.600030 15.018214 -14.360254 9.942925 42.213072 -63.493685 -55.583241 9.739542 -8.496042 18.332276 -16.851843 -73.170766 14.687833 -59.842844 85.460834 -62.408495 -6.400866 -4.355100 -0.946742 0.093227 -0.232025 0.030927 7.705660 -72.822288 11.710404 75.744543 77.536833 73.301659 -11.510588 -5.158665 4.345674 0.054015 0.336451 0.023851
-9.841354 45.860558 26.477749 160.557576 -14.989345 0.424448 4.412091 9.054339 0.255529 0.273526 0.513333 0.012751 0.457835 0.941443 0.024682 4.093217 8.403479 0.487334 -1.198745 22.799409 -0.008682 -1.286902 -1.285077 0.264326 2.285411 0.577130 -3.990336 1.085151 -11.829843 0.638226 -3.240766 -78.023102 11.569371 -9.929748 -7.228481 -24.864365 -10.715684 -0.715348 -3.587241 14.988076 -14.328171 9.933704 41.265325 -64.073325 -54.426483 9.449076 -8.225691 17.924139 -16.889511 -73.190076 14.714925 -59.806310 85.458348 -62.375877 -6.384564 -4.356897 -0.942977 0.056949 -0.235199 0.028234 7.718378 -72.845746 11.678728 75.719133 77.529635 73.284254 -11.502676 -5.155351 4.340766 0.055082 0.332804 0.023191
-9.838094 45.865331 26.477443 160.557117 -14.960265 0.401158 4.406677 9.050698 0.276132 0.272874 0.519234 0.012161 0.455962 0.941205 0.024278 4.079415 8.398966 0.484393 -1.193707 22.682485 -0.016431 -1.279111 -1.424263 0.254861 2.290136 0.514826 -4.010115 1.042608 -11.782329 0.645839 -2.025508 -77.978343 10.376762 -9.797980 -6.856989 -24.451247 -10.681226 -0.794538 -3.555292 14.915841 -14.243037 9.920452 40.163409 -64.700514 -53.074276 9.132899 -7.905209 17.498504 -17.006161 -73.202125 14.832899 -59.794778 85.449806 -62.370545 -6.342652 -4.384378 -0.933796 0.065273 -0.212100 0.021057 7.662813 -72.875733 11.729620 75.701949 77.524133 73.272883 -11.471834 -5.116318 4.345079 0.031360 0.291049 0.013211
-9.838840 45.870080 26.476000 160.564737 -14.924604 0.400433 4.393647 9.027473 0.271675 0.256553 0.554055 0.012906 0.467563 0.920163 0.023543 4.060659 8.393080 0.480738 -1.191190 22.551124 -0.022572 -1.274257 -1.580174 0.247709 2.297548 0.456454 -4.034100 1.019119 -11.733758 0.653846 -0.613167 -77.926921 8.967643 -9.631427 -6.470315 -24.025234 -10.645307 -0.858319 -3.528747 14.883724 -14.186184 9.910112 38.860410 -65.310526 -51.569720 8.797747 -7.518679 17.089096 -17.072045 -73.226316 14.886079 -59.793877 85.433238 -62.375014 -6.320194 -4.386891 -0.937596 0.076478 -0.212959 0.023700 7.664735 -72.907802 11.708042 75.706313 77.513416 73.276011 -11.464903 -5.114513 4.349369 0.023433 0.286969 0.006465
